<svg width="960" height="560" viewBox="0 0 960 560" fill="none" xmlns="http://www.w3.org/2000/svg">
  <defs>
    <linearGradient id="bg" x1="80" y1="32" x2="880" y2="528" gradientUnits="userSpaceOnUse">
      <stop offset="0" stop-color="#FFFFFF" stop-opacity="0.26" />
      <stop offset="0.45" stop-color="#FFFFFF" stop-opacity="0.08" />
      <stop offset="1" stop-color="#FFFFFF" stop-opacity="0.18" />
    </linearGradient>
    <linearGradient id="panel" x1="120" y1="112" x2="784" y2="472" gradientUnits="userSpaceOnUse">
      <stop offset="0" stop-color="#FFFFFF" stop-opacity="0.3" />
      <stop offset="1" stop-color="#FFFFFF" stop-opacity="0.08" />
    </linearGradient>
    <filter id="blurGlow" x="0" y="0" width="960" height="560" filterUnits="userSpaceOnUse" color-interpolation-filters="sRGB">
      <feGaussianBlur stdDeviation="14" />
    </filter>
  </defs>

  <rect width="960" height="560" rx="30" fill="url(#bg)" />
  <rect x="84" y="84" width="792" height="392" rx="26" fill="url(#panel)" stroke="rgba(255,255,255,0.30)" />

  <g opacity="0.8">
    <rect x="128" y="128" width="292" height="30" rx="15" fill="rgba(255,255,255,0.26)" />
    <rect x="128" y="178" width="224" height="18" rx="9" fill="rgba(255,255,255,0.18)" />
    <rect x="128" y="210" width="264" height="18" rx="9" fill="rgba(255,255,255,0.14)" />
    <rect x="128" y="242" width="188" height="18" rx="9" fill="rgba(255,255,255,0.14)" />
  </g>

  <g>
    <rect x="488" y="136" width="328" height="104" rx="16" fill="rgba(255,255,255,0.14)" />
    <rect x="488" y="258" width="328" height="104" rx="16" fill="rgba(255,255,255,0.1)" />
    <rect x="488" y="380" width="328" height="50" rx="14" fill="rgba(255,255,255,0.16)" />
  </g>

  <g filter="url(#blurGlow)" opacity="0.45">
    <circle cx="180" cy="462" r="56" fill="#FFFFFF" />
    <circle cx="758" cy="102" r="48" fill="#FFFFFF" />
  </g>

  <g opacity="0.85">
    <rect x="156" y="318" width="264" height="92" rx="14" fill="rgba(255,255,255,0.14)" />
    <rect x="180" y="342" width="138" height="16" rx="8" fill="rgba(255,255,255,0.22)" />
    <rect x="180" y="368" width="204" height="14" rx="7" fill="rgba(255,255,255,0.15)" />
  </g>
</svg>
