<svg width="40" height="40" viewBox="0 0 40 40" fill="none" xmlns="http://www.w3.org/2000/svg">
  <rect x="1.5" y="1.5" width="37" height="37" rx="11.5" fill="url(#paint0_linear_1102_21)" stroke="url(#paint1_linear_1102_21)"/>
  <path d="M9 21.4044C9 18.3327 10.1047 15.7113 12.3142 13.5402C14.5237 11.3467 17.1893 10.25 20.311 10.25C22.7549 10.25 24.8364 10.9434 26.5555 12.3303V16.3326C24.726 14.6339 22.6556 13.7845 20.3443 13.7845C18.3115 13.7845 16.6148 14.4958 15.2543 15.9182C13.9161 17.3408 13.247 19.1594 13.247 21.3746C13.247 23.5678 13.9161 25.3566 15.2543 26.741C16.5924 28.1256 18.2892 28.8178 20.3443 28.8178C22.7217 28.8178 24.9256 27.9306 26.9558 26.1557V30.1595C25.2143 31.584 23.0972 32.2963 20.6046 32.2963C17.3289 32.2963 14.579 31.2185 12.3543 29.063C10.1181 26.9077 9 24.3552 9 21.4044Z" fill="#EAF1FF"/>
  <path d="M21.0898 28.0339H31.0001V31.915H21.0898V28.0339Z" fill="#EAF1FF"/>
  <defs>
    <linearGradient id="paint0_linear_1102_21" x1="3" y1="4" x2="35.5" y2="36.5" gradientUnits="userSpaceOnUse">
      <stop stop-color="#2A4D86"/>
      <stop offset="1" stop-color="#17335C"/>
    </linearGradient>
    <linearGradient id="paint1_linear_1102_21" x1="4" y1="2.5" x2="32.5" y2="40" gradientUnits="userSpaceOnUse">
      <stop stop-color="#5B7EB7"/>
      <stop offset="1" stop-color="#34588D"/>
    </linearGradient>
  </defs>
</svg>
