<svg width="64" height="64" viewBox="0 0 64 64" fill="none" xmlns="http://www.w3.org/2000/svg">
  <defs>
    <linearGradient id="tab-dark-panel" x1="10" y1="8" x2="54" y2="57" gradientUnits="userSpaceOnUse">
      <stop stop-color="#1A2430"/>
      <stop offset="1" stop-color="#0F1621"/>
    </linearGradient>
    <linearGradient id="tab-dark-accent" x1="39" y1="15" x2="51" y2="45" gradientUnits="userSpaceOnUse">
      <stop stop-color="#9BEAFF"/>
      <stop offset="1" stop-color="#35C1FF"/>
    </linearGradient>
  </defs>
  <rect x="4" y="4" width="56" height="56" rx="18" fill="#0B1017"/>
  <rect x="9" y="9" width="46" height="46" rx="15" fill="url(#tab-dark-panel)" stroke="#2A3646" stroke-opacity="0.72"/>
  <path d="M18 20H39L34 26H23.5C22.1193 26 21 27.1193 21 28.5C21 29.8807 22.1193 31 23.5 31H31.5C36.1944 31 40 34.8056 40 39.5C40 44.1944 36.1944 48 31.5 48H12L17 42H31.5C32.8807 42 34 40.8807 34 39.5C34 38.1193 32.8807 37 31.5 37H23.5C18.8056 37 15 33.1944 15 28.5C15 23.8056 18.8056 20 23.5 20H18Z" fill="#F8FBFF"/>
  <path d="M39 17H50L44 49H33L39 17Z" fill="url(#tab-dark-accent)"/>
  <path d="M15 52H37" stroke="#F8FBFF" stroke-opacity="0.18" stroke-width="2" stroke-linecap="round"/>
</svg>
